HIERARCHY
ROOT Hips
{
	OFFSET -3.958830 18.904000 13.208200
	CHANNELS 6 Xposition Yposition Zposition Zrotation Yrotation Xrotation 
	JOINT LHipJoint
	{
		OFFSET 0.000000 0.000000 0.000000
		CHANNELS 3 Zrotation Yrotation Xrotation
		JOINT LeftUpLeg
		{
			OFFSET 1.800000 -1.400000 0.085000
			CHANNELS 3 Zrotation Yrotation Xrotation
			JOINT LeftLeg
			{
				OFFSET 2.215000 -6.000000 0.000000
				CHANNELS 3 Zrotation Yrotation Xrotation
				JOINT LeftFoot
				{
					OFFSET 2.500000 -6.900000 0.000000
					CHANNELS 3 Zrotation Yrotation Xrotation
					JOINT LeftToeBase
					{
						OFFSET 0.200000 -0.500000 1.950000
						CHANNELS 3 Zrotation Yrotation Xrotation
						End Site
						{
							OFFSET 0.000000 0.000000 0.000000
						}
					}
				}
			}
		}
	}
	JOINT RHipJoint
	{
		OFFSET 0.000000 0.000000 0.000000
		CHANNELS 3 Zrotation Yrotation Xrotation
		JOINT RightUpLeg
		{
			OFFSET -1.800000 -1.400000 0.085000
			CHANNELS 3 Zrotation Yrotation Xrotation
			JOINT RightLeg
			{
				OFFSET -2.215000 -6.000000 0.000000
				CHANNELS 3 Zrotation Yrotation Xrotation
				JOINT RightFoot
				{
					OFFSET -2.500000 -6.900000 0.000000
					CHANNELS 3 Zrotation Yrotation Xrotation
					JOINT RightToeBase
					{
						OFFSET -0.200000 -0.500000 1.950000
						CHANNELS 3 Zrotation Yrotation Xrotation
						End Site
						{
							OFFSET 0.000000 0.000000 0.000000
						}
					}
				}
			}
		}
	}
	JOINT LowerBack
	{
		OFFSET 0.000000 0.000000 0.000000
		CHANNELS 3 Zrotation Yrotation Xrotation
		JOINT Spine
		{
			OFFSET -0.087000 1.940000 -0.288900
			CHANNELS 3 Zrotation Yrotation Xrotation
			JOINT Spine1
			{
				OFFSET 0.000000 1.950000 0.060000
				CHANNELS 3 Zrotation Yrotation Xrotation
				JOINT Neck
				{
					OFFSET 0.000000 0.000000 0.000000
					CHANNELS 3 Zrotation Yrotation Xrotation
					JOINT Neck1
					{
						OFFSET 0.000000 1.600000 0.340000
						CHANNELS 3 Zrotation Yrotation Xrotation
						JOINT Head
						{
							OFFSET 0.000000 1.667000 -0.240000
							CHANNELS 3 Zrotation Yrotation Xrotation
							End Site
							{
								OFFSET 0.000000 0.000000 0.000000
							}
						}
					}
				}
				JOINT LeftShoulder
				{
					OFFSET 0.000000 0.000000 0.000000
					CHANNELS 3 Zrotation Yrotation Xrotation
					JOINT LeftArm
					{
						OFFSET 2.700000 1.550000 -0.730000
						CHANNELS 3 Zrotation Yrotation Xrotation
						JOINT LeftForeArm
						{
							OFFSET 5.450000 0.000000 0.000000
							CHANNELS 3 Zrotation Yrotation Xrotation
							JOINT LeftHand
							{
								OFFSET 3.450000 0.000000 0.000000
								CHANNELS 3 Zrotation Yrotation Xrotation
								JOINT LeftHandIndex1
								{
									OFFSET 0.750000 0.000000 0.000000
									CHANNELS 3 Zrotation Yrotation Xrotation
									End Site
									{
										OFFSET 0.000000 0.000000 0.000000
									}
								}
							}
						}
					}
				}
				JOINT RightShoulder
				{
					OFFSET 0.000000 0.000000 0.000000
					CHANNELS 3 Zrotation Yrotation Xrotation
					JOINT RightArm
					{
						OFFSET -2.700000 1.550000 -0.730000
						CHANNELS 3 Zrotation Yrotation Xrotation
						JOINT RightForeArm
						{
							OFFSET -5.450000 0.000000 0.000000
							CHANNELS 3 Zrotation Yrotation Xrotation
							JOINT RightHand
							{
								OFFSET -3.450000 0.000000 0.000000
								CHANNELS 3 Zrotation Yrotation Xrotation
								JOINT RightHandIndex1
								{
									OFFSET -0.750000 0.000000 0.000000
									CHANNELS 3 Zrotation Yrotation Xrotation
									End Site
									{
										OFFSET 0.000000 0.000000 0.000000
									}
								}
							}
						}
					}
				}
			}
		}
	}
}
MOTION
Frames: 12
Frame Time: 0.016667
-0.642910 17.113100 -1.054300 -1.210583 -11.253339 -0.031158 -15.749557 14.567036 3.347842 3.221129 1.100161 3.392377 -5.636529 5.525476 4.959717 -0.052577 4.868044 3.133333 0.469330 -0.065690 0.580210 17.752970 -9.390671 2.916473 -0.191904 2.484837 -25.690061 4.481289 -3.284056 9.404707 -0.013994 -1.524300 4.038747 -0.126180 -0.000250 0.223990 -1.827699 -5.977021 -7.872508 -0.371730 -8.219855 20.651360 -1.178597 -8.117240 10.079969 3.655213 -6.370610 -9.108209 -19.006080 12.983743 43.633603 -9.734380 12.480090 -4.929470 -13.139921 12.096322 2.744459 -31.539518 30.184505 -11.714236 -125.322875 -36.872942 45.909581 -3.360794 3.756755 0.754420 0.012700 0.083550 0.139830 7.113023 -9.464620 5.108420 44.116593 -29.969402 -20.100680 107.511858 34.840669 25.760649 1.619968 -2.125688 -0.156710 0.050450 -0.136790 -0.407160 
-0.651150 17.111430 -1.024460 -1.328484 -11.652222 0.654616 -15.727075 14.497077 3.322049 3.245084 1.043798 3.199963 -5.690363 5.467925 4.606410 -0.059152 4.848398 3.149108 0.464230 -0.066080 0.578920 17.790831 -9.363958 2.943067 0.138601 2.566843 -25.496375 4.470287 -3.133722 8.204916 -0.004171 -1.495883 4.060855 -0.121060 0.015520 0.222680 -1.920340 -5.884014 -7.844329 0.568494 -8.568587 19.771095 -1.377341 -8.364620 10.614520 3.465201 -6.440970 -9.057501 -18.949597 13.027915 43.134862 -10.218980 12.809120 -4.908250 -12.887672 11.934961 2.866703 -30.267753 30.145953 -11.118850 -125.648249 -36.393065 45.781148 -3.382926 3.759197 0.737100 0.031600 0.072290 0.143420 7.188797 -9.389247 4.983777 44.264128 -29.102550 -19.892713 107.776397 35.728830 27.080350 1.624866 -2.142299 -0.162250 0.058990 -0.137660 -0.404920 
-0.655760 17.117660 -1.008720 -1.531491 -12.137209 1.059719 -15.695924 14.472028 3.296054 3.341620 0.980646 2.915528 -5.714692 5.466524 4.693577 -0.063951 4.831799 3.159330 0.459860 -0.068360 0.577800 17.825144 -9.354100 2.970251 0.452270 2.640717 -25.256295 4.568646 -3.076595 7.577147 -0.001727 -1.490207 4.071998 -0.121620 0.025170 0.222660 -2.013755 -5.841474 -7.833085 1.454909 -8.937869 19.668667 -1.585977 -8.629822 10.784040 3.339280 -6.668746 -9.120803 -19.358060 13.194279 42.656176 -10.577330 12.977070 -4.982860 -12.778063 11.724925 3.017096 -29.175331 30.300543 -10.676374 -126.144300 -36.233564 46.175378 -3.400780 3.759099 0.727170 0.040880 0.067280 0.144790 7.300217 -9.133861 4.888980 44.083344 -28.257736 -19.646123 108.132057 36.202217 27.943313 1.635593 -2.150062 -0.163150 0.065520 -0.137050 -0.401510 
-0.659440 17.125470 -0.996840 -1.729336 -12.528410 1.297396 -15.682105 14.478755 3.261976 3.511405 0.913423 2.556360 -5.660780 5.490553 5.100369 -0.070378 4.807107 3.157737 0.469990 -0.052330 0.586450 17.838541 -9.342398 2.991309 0.633368 2.691499 -24.887925 4.872858 -3.072086 7.129387 -0.012488 -1.501970 4.066215 -0.116740 0.013680 0.230620 -2.050147 -5.853234 -7.821807 2.073760 -9.031853 19.597699 -1.423188 -8.670933 11.044618 3.268682 -6.789996 -9.196345 -19.776916 13.231090 42.649776 -10.961770 12.986480 -5.344440 -12.526672 11.541007 3.009173 -28.447823 29.608070 -10.212119 -126.157704 -36.286555 46.607887 -3.404504 3.768413 0.722480 0.038930 0.077610 0.142290 7.156029 -8.910216 4.960412 44.107087 -27.977087 -19.665173 108.833431 36.688619 28.810601 1.639463 -2.160975 -0.149450 0.059260 -0.140890 -0.399650 
-0.661910 17.133970 -0.986500 -1.835416 -12.808116 1.442594 -15.660860 14.482168 3.218514 3.592874 0.868530 2.191568 -5.572855 5.541072 5.755614 -0.079332 4.780923 3.160986 0.476820 -0.036820 0.590650 17.857168 -9.352000 3.006221 0.664114 2.670060 -24.376704 5.161513 -3.053743 6.498225 -0.026449 -1.519635 4.064509 -0.112450 0.008260 0.229550 -2.106548 -5.827411 -7.796839 2.665253 -9.190619 19.409801 -1.471242 -8.793553 11.422574 3.209682 -6.893482 -9.357691 -20.196275 13.398200 42.908809 -11.273240 13.041490 -5.663950 -12.257688 11.215403 3.095226 -28.034407 29.056570 -9.973998 -125.753766 -36.230237 46.300023 -3.403088 3.759234 0.721950 0.035360 0.087420 0.144460 6.981087 -8.579227 5.065453 44.424388 -27.448458 -19.679468 109.308777 37.513943 30.061214 1.649087 -2.162922 -0.142760 0.066310 -0.144670 -0.395900 
-0.656530 17.138430 -0.977000 -2.074704 -13.224412 1.627495 -15.607721 14.433360 3.183126 3.665026 0.831844 2.013443 -5.529343 5.547846 5.991359 -0.077338 4.751328 3.169178 0.478420 -0.029040 0.588360 17.909655 -9.385584 3.026863 0.758605 2.677656 -24.004473 5.438207 -3.039273 5.981271 -0.031915 -1.549755 4.056921 -0.110640 0.008630 0.225980 -2.261618 -5.674640 -7.766307 3.845894 -9.497389 19.143183 -2.056922 -8.992628 11.637347 3.163166 -7.083068 -9.537425 -20.668428 13.759685 42.937097 -11.256860 13.199660 -5.289360 -12.247588 10.818628 3.179559 -27.621635 28.722487 -9.898507 -124.862181 -35.886682 44.945078 -3.402424 3.758644 0.709250 0.036830 0.084270 0.145880 7.014429 -8.218656 5.174460 44.298546 -27.210478 -19.539699 109.950369 38.005815 31.015047 1.661659 -2.179392 -0.136380 0.062850 -0.149040 -0.389750 
-0.649540 17.143060 -0.973410 -2.215011 -13.566921 1.703744 -15.573492 14.400132 3.166010 3.672951 0.819958 1.975481 -5.534574 5.555126 6.082356 -0.078315 4.740334 3.171681 0.480400 -0.028670 0.591680 17.943717 -9.404605 3.035375 0.689031 2.619458 -23.559831 5.715539 -3.021458 5.363927 -0.041223 -1.578881 4.049032 -0.110950 0.004420 0.222030 -2.362803 -5.584053 -7.750358 4.635091 -9.762693 19.025259 -2.542633 -9.193042 11.827969 3.206080 -7.194888 -9.751878 -20.985602 14.151052 43.073087 -11.248580 13.470930 -5.100630 -12.375061 10.314829 3.300049 -27.249721 28.623130 -9.937297 -124.226356 -35.449462 43.540323 -3.398501 3.750999 0.711100 0.033040 0.084680 0.145860 7.035697 -7.780164 5.318168 44.096438 -27.034990 -19.469293 110.396234 38.252336 31.523691 1.670219 -2.185524 -0.137090 0.060770 -0.152260 -0.391700 
-0.642790 17.144180 -0.969640 -2.198930 -14.026335 1.659923 -15.547818 14.365504 3.160096 3.598382 0.837988 2.107628 -5.688333 5.597272 6.180773 -0.051728 4.741977 3.170066 0.499170 -0.004730 0.600840 17.970996 -9.428338 3.029447 0.579729 2.513769 -23.122625 5.774810 -2.988510 4.851457 -0.057757 -1.608884 4.038558 -0.107590 -0.001610 0.233300 -2.439728 -5.495264 -7.729496 5.110337 -9.974079 18.846860 -3.002843 -9.369469 12.002760 3.194857 -7.295979 -9.875227 -21.234275 14.510405 43.163023 -11.187950 13.715260 -4.937900 -12.477634 9.944147 3.406823 -26.568266 28.689378 -9.891494 -123.660163 -34.684308 41.752005 -3.389658 3.766398 0.699660 0.031580 0.094740 0.156300 7.146191 -7.429223 5.348827 43.202052 -26.813011 -19.084007 110.796723 38.060468 31.567874 1.679801 -2.208545 -0.115890 0.046660 -0.169420 -0.381230 
-0.631960 17.142040 -0.971290 -2.264057 -14.338787 1.646721 -15.524809 14.346080 3.148761 3.577655 0.846843 2.111676 -5.807773 5.645275 6.378291 -0.031242 4.740827 3.173547 0.502830 0.009870 0.594710 17.993617 -9.443278 3.030737 0.485959 2.434298 -22.776592 5.926306 -2.970090 4.412006 -0.070642 -1.638678 4.030643 -0.104560 -0.001170 0.236250 -2.506849 -5.439597 -7.714902 5.644924 -10.258941 18.729693 -3.353397 -9.619627 12.121237 3.233410 -7.416534 -10.013030 -21.497915 14.727105 43.130627 -11.361770 13.940690 -4.718260 -12.671719 9.506353 3.519333 -25.700872 28.932061 -9.850195 -123.229828 -33.512453 39.397561 -3.383090 3.768845 0.688170 0.033010 0.102080 0.168820 7.262057 -6.997642 5.414219 42.012091 -26.720066 -18.734431 111.379343 37.801364 31.531458 1.687099 -2.224275 -0.106030 0.043370 -0.180990 -0.369140 
-0.620620 17.133960 -0.974850 -2.240817 -14.598197 1.773236 -15.519235 14.312558 3.137703 3.447531 0.868128 2.044071 -5.943896 5.667814 6.438292 -0.024267 4.734190 3.182456 0.505050 0.029860 0.576360 18.003618 -9.448153 3.033717 0.332162 2.414945 -22.719748 6.134972 -2.956235 4.068811 -0.069230 -1.676502 4.036075 -0.092220 0.017430 0.237450 -2.532530 -5.370549 -7.696336 5.879827 -10.215364 18.145257 -3.242432 -9.613025 12.362178 3.152198 -7.248458 -9.953459 -21.040680 14.614319 43.436094 -11.505200 14.121180 -4.198040 -12.802056 9.146128 3.452896 -24.462479 28.419730 -9.401029 -122.601069 -32.177079 37.018304 -3.391322 3.772024 0.664780 0.056390 0.094870 0.189880 7.534185 -6.742048 5.438365 40.556140 -26.736575 -18.218408 111.748924 38.070264 32.045701 1.676732 -2.244429 -0.103200 0.047900 -0.190620 -0.355440 
-0.607670 17.128230 -0.990180 -2.226707 -14.899692 1.750755 -15.513615 14.288451 3.123125 3.281155 0.881326 1.919071 -5.973930 5.682234 6.643180 -0.016160 4.707732 3.186614 0.526870 0.071930 0.587570 18.011961 -9.458451 3.039471 0.272948 2.402327 -22.617668 6.164491 -2.909429 3.755871 -0.075613 -1.693613 4.030342 -0.070180 0.012390 0.243230 -2.552606 -5.309329 -7.680754 5.916433 -10.151593 17.939151 -3.052723 -9.601798 12.558631 2.951434 -7.114321 -9.763254 -20.586546 14.442395 43.572792 -11.651690 14.147080 -4.458280 -13.025680 8.826307 3.366337 -23.071985 27.867539 -8.900389 -122.093488 -31.242643 35.411226 -3.395517 3.784612 0.638880 0.065620 0.101920 0.197730 8.143480 -6.462923 5.241558 38.835635 -26.132444 -17.507778 111.575903 38.580405 32.698918 1.686866 -2.265744 -0.084560 0.043760 -0.208940 -0.345050 
-0.594420 17.122590 -1.006710 -2.145661 -15.376854 1.714884 -15.514118 14.244922 3.118548 3.034676 0.901570 1.885010 -6.151321 5.694122 6.641463 -0.021290 4.709179 3.192892 0.555640 0.108200 0.612690 18.018605 -9.460564 3.040578 0.139984 2.421127 -22.665798 6.361770 -2.900311 3.585007 -0.087968 -1.712453 4.025766 -0.045660 0.015860 0.251690 -2.562903 -5.232104 -7.660239 5.823727 -9.982394 17.549372 -2.831155 -9.499695 12.933201 2.725544 -6.948158 -9.568813 -20.105919 14.273513 43.879034 -12.069660 14.183090 -4.975780 -13.205822 8.411866 3.287939 -21.687790 27.179242 -8.398763 -120.845807 -30.584994 33.746371 -3.405330 3.774304 0.629780 0.077810 0.110810 0.212820 8.755396 -6.077271 5.037298 37.180776 -25.175454 -16.734390 110.937217 39.326512 33.459982 1.691042 -2.275657 -0.079300 0.056450 -0.228560 -0.343090 
